<?xml version="1.0" standalone="no"?>
<!DOCTYPE svg PUBLIC "-//W3C//DTD SVG 20010904//EN"
 "http://www.w3.org/TR/2001/REC-SVG-20010904/DTD/svg10.dtd">
<svg version="1.0" xmlns="http://www.w3.org/2000/svg"
 width="1080.000000pt" height="1080.000000pt" viewBox="0 0 1080.000000 1080.000000"
 preserveAspectRatio="xMidYMid meet">
<metadata>
Created by potrace 1.14, written by Peter Selinger 2001-2017
</metadata>
<g transform="translate(0.000000,1080.000000) scale(0.100000,-0.100000)"
fill="#000000" stroke="none">
<path d="M0 10446 l0 -353 49 5 c44 4 52 1 87 -30 22 -19 68 -56 104 -83 36
-26 82 -62 102 -78 35 -28 39 -29 70 -16 37 15 131 90 166 131 13 15 30 28 38
28 33 0 76 -33 113 -88 61 -90 66 -92 80 -24 20 90 68 243 100 313 15 35 38
106 50 158 29 123 32 128 82 133 51 5 80 -24 74 -75 -10 -75 -18 -116 -37
-181 -13 -46 -17 -81 -13 -105 13 -70 14 -94 5 -135 -8 -37 -6 -45 19 -81 35
-49 128 -230 136 -266 4 -14 32 -59 62 -100 75 -98 119 -171 207 -343 50 -96
78 -140 84 -134 7 7 7 20 0 39 -6 17 -8 41 -6 54 3 13 1 22 -3 19 -5 -3 -7 19
-5 48 2 29 -1 62 -6 73 -11 20 -12 192 -2 377 10 179 7 196 -60 353 -8 17 -17
45 -20 63 -4 17 -11 32 -16 32 -5 0 -11 8 -14 18 -4 10 -14 27 -24 38 -22 24
-72 109 -72 122 0 6 -13 25 -29 44 -50 56 -78 99 -126 193 -37 73 -46 102 -48
148 l-2 57 -572 0 -573 0 0 -354z"/>
<path d="M2555 10791 c3 -6 2 -28 -1 -51 -5 -30 -11 -40 -21 -36 -15 6 -43
-15 -43 -32 0 -5 -7 -15 -14 -22 -8 -6 -24 -31 -36 -55 -22 -46 -71 -87 -78
-67 -6 20 -22 13 -22 -10 l0 -21 -19 21 c-21 25 -36 29 -27 7 3 -8 1 -15 -4
-15 -5 0 -19 -19 -31 -42 -36 -71 -90 -135 -149 -178 -66 -48 -106 -88 -144
-147 -26 -39 -28 -48 -21 -100 4 -31 11 -68 16 -82 18 -45 39 -296 40 -468 1
-216 -29 -431 -76 -538 -13 -29 -38 -101 -55 -161 -33 -113 -49 -154 -105
-269 -57 -117 -56 -113 -40 -258 17 -149 19 -345 5 -487 -5 -52 -14 -147 -20
-210 -11 -114 -38 -241 -65 -312 -8 -21 -22 -73 -30 -115 -9 -43 -24 -98 -35
-123 -10 -25 -23 -58 -29 -75 l-9 -30 -1 32 c-1 31 -13 99 -31 178 -46 196
-61 251 -73 260 -7 5 -13 23 -12 39 2 34 -21 105 -39 124 -7 7 -24 14 -37 16
-37 5 -59 17 -59 32 0 22 -36 16 -54 -8 -11 -14 -15 -17 -12 -6 4 15 1 16 -33
9 -2 -1 2 -8 9 -16 10 -12 9 -23 -4 -57 -12 -28 -15 -54 -11 -80 5 -26 3 -38
-5 -38 -6 0 -8 -4 -5 -10 3 -5 1 -18 -4 -27 -6 -10 -11 -13 -11 -8 0 6 -4 3
-10 -5 -7 -12 -14 -9 -38 16 -16 17 -34 28 -41 26 -9 -3 -11 5 -8 27 3 20 1
31 -6 31 -7 0 -6 5 3 10 13 8 13 11 1 19 -7 5 -11 13 -7 19 3 6 2 13 -4 17 -5
3 -10 14 -10 24 0 26 -25 72 -35 63 -4 -4 -5 5 -2 19 5 18 2 31 -8 39 -7 6
-12 17 -9 24 3 8 -1 16 -9 19 -9 3 -18 27 -22 57 -4 32 -15 58 -26 68 -10 9
-19 29 -19 45 0 15 -7 41 -15 57 -9 17 -15 31 -14 32 0 2 -5 17 -12 33 -16 40
-20 155 -5 155 6 0 5 4 -2 9 -8 5 -15 32 -17 67 -8 133 -16 179 -36 221 -16
34 -19 49 -11 71 5 15 6 36 1 47 -4 11 -8 14 -8 6 -1 -11 -5 -10 -20 4 -15 12
-19 27 -17 54 2 20 -2 43 -9 51 -6 8 -17 42 -24 75 -7 33 -19 80 -26 105 -8
25 -16 56 -18 70 -3 14 -8 45 -13 70 -4 25 -7 48 -6 53 1 4 -4 7 -12 7 -10 0
-13 -8 -11 -22 10 -51 7 -410 -4 -421 -6 -6 -11 -25 -12 -41 -1 -63 -43 -135
-65 -113 -5 4 -7 26 -5 48 2 41 2 41 -26 34 -15 -4 -40 -9 -56 -10 -27 -2 -98
-66 -79 -73 12 -4 2 -62 -12 -62 -17 0 -47 -71 -47 -110 -1 -19 1 -53 4 -76 5
-51 -17 -108 -49 -122 -13 -7 -24 -16 -24 -21 0 -6 -6 -8 -14 -5 -18 7 -30
-14 -28 -48 2 -18 -4 -31 -17 -38 -51 -27 -66 -77 -36 -123 14 -22 11 -67 -5
-67 -5 0 -7 -16 -4 -35 3 -29 -1 -40 -22 -58 -22 -19 -25 -28 -19 -55 3 -18
11 -32 16 -32 5 0 9 -16 9 -35 0 -25 -7 -43 -25 -59 -17 -16 -23 -30 -20 -46
3 -13 0 -29 -6 -36 -6 -7 -9 -33 -8 -59 3 -41 0 -48 -35 -81 -27 -25 -35 -40
-31 -54 4 -12 2 -20 -4 -20 -8 0 -11 -1058 -11 -3610 l0 -3610 4074 0 4073 0
67 183 c37 100 74 201 82 224 8 23 69 149 136 280 66 131 144 297 173 369 69
169 181 379 253 473 78 101 107 145 148 225 41 81 77 135 139 207 26 30 71 95
101 145 30 50 75 111 100 135 57 54 85 82 102 103 22 28 54 18 102 -32 54 -56
105 -92 212 -152 42 -23 100 -62 130 -86 29 -24 61 -44 71 -44 10 0 36 9 59
21 23 12 78 27 122 34 45 7 94 18 109 24 16 6 47 11 70 11 23 0 62 5 86 11 57
13 95 4 136 -32 18 -16 48 -36 68 -44 47 -19 109 -93 152 -178 l35 -70 0 2136
c0 1413 -3 2138 -10 2142 -5 3 -10 -1 -10 -9 0 -9 -7 -16 -16 -16 -12 0 -15
-7 -12 -25 3 -14 1 -28 -3 -31 -5 -3 -9 0 -9 5 0 6 -4 11 -8 11 -4 0 -8 -15
-8 -34 0 -18 -9 -46 -20 -62 -10 -16 -19 -36 -19 -44 0 -10 -8 -14 -23 -12
-15 2 -22 -2 -22 -12 0 -9 -4 -16 -9 -16 -5 0 -16 -16 -25 -35 -9 -19 -22 -36
-29 -36 -7 -1 -16 -2 -22 -4 -5 -1 -21 -3 -34 -3 -20 -2 -22 -6 -17 -28 6 -21
4 -25 -8 -21 -9 4 -16 3 -16 -1 0 -4 -10 -12 -22 -17 -13 -6 -22 -18 -20 -28
1 -9 3 -25 5 -34 1 -14 -4 -17 -25 -15 -25 2 -26 0 -26 -44 0 -25 -5 -51 -11
-57 -8 -8 -11 -8 -11 1 0 7 -5 12 -10 12 -6 0 -10 -6 -9 -12 4 -32 -1 -37 -32
-31 l-32 6 7 -38 c5 -27 4 -40 -6 -46 -11 -8 -11 -11 1 -18 10 -6 10 -10 1
-16 -6 -4 -9 -13 -6 -21 11 -29 -10 -12 -24 19 l-14 32 -6 -60 c-3 -33 -3 -67
1 -75 7 -17 1 -40 -11 -40 -4 0 -10 9 -13 20 -3 11 -13 20 -22 20 -14 0 -15
-3 -5 -15 9 -11 6 -20 -18 -43 l-30 -29 12 -66 c13 -69 5 -112 -12 -66 -6 14
-17 31 -26 38 -14 12 -15 7 -12 -48 3 -49 1 -61 -11 -61 -9 0 -14 -8 -13 -22
4 -40 1 -46 -20 -41 -12 3 -20 0 -20 -7 0 -6 -7 -18 -15 -27 -11 -11 -14 -27
-9 -60 3 -27 2 -48 -4 -52 -6 -3 -12 -22 -14 -41 -1 -19 -8 -39 -14 -45 -18
-16 -26 -63 -11 -68 8 -3 5 -10 -10 -22 -13 -9 -23 -27 -23 -41 0 -14 -5 -35
-11 -47 -7 -11 -12 -47 -11 -80 0 -46 -3 -57 -14 -53 -9 4 -14 -2 -14 -15 0
-15 5 -19 15 -15 8 3 15 1 15 -3 0 -5 -7 -12 -16 -15 -8 -3 -12 -10 -9 -16 4
-6 11 -7 17 -4 6 4 6 -2 -1 -15 -7 -12 -14 -58 -17 -104 -3 -45 -7 -93 -9
-107 -2 -14 -4 -45 -5 -70 l-2 -45 -9 40 c-12 56 -11 246 0 335 13 93 14 340
2 359 -6 10 -11 6 -19 -15 -6 -16 -11 -22 -11 -13 -1 20 46 278 64 349 7 30
21 98 30 150 19 112 47 225 80 332 37 118 209 459 292 580 40 58 73 109 73
112 0 3 14 29 31 58 30 51 86 177 116 263 30 88 55 136 108 205 23 30 47 64
52 75 25 46 73 209 73 244 0 21 7 52 16 70 9 18 13 42 10 56 -3 13 -2 27 4 30
7 4 10 612 10 1806 l0 1799 -78 0 c-85 0 -94 -5 -137 -77 -10 -17 -28 -37 -41
-43 -12 -7 -28 -23 -35 -36 -7 -13 -16 -24 -21 -24 -4 0 -8 -5 -8 -11 0 -6
-13 -30 -30 -54 -16 -24 -30 -48 -30 -54 0 -6 -4 -11 -8 -11 -10 0 -52 -90
-52 -109 0 -13 -18 -58 -46 -116 -8 -16 -15 -34 -15 -40 0 -5 -6 -17 -13 -25
-14 -16 -66 -141 -66 -159 0 -6 -4 -19 -9 -29 -23 -43 -62 -148 -67 -182 -3
-14 -16 -44 -36 -83 -5 -10 -6 -27 -3 -38 4 -12 2 -19 -6 -19 -7 0 -10 -2 -7
-6 3 -3 -8 -33 -25 -67 l-31 -62 -8 55 c-12 81 -12 209 0 255 6 22 14 63 18
90 3 28 14 77 24 110 10 33 22 78 26 100 13 71 62 205 101 274 21 36 49 93 64
126 14 33 46 97 72 142 26 45 47 85 47 88 0 3 -819 5 -1819 5 l-1819 0 -22
-72 c-19 -68 -33 -105 -105 -293 -39 -103 -158 -325 -237 -443 -68 -101 -77
-113 -128 -173 -24 -28 -70 -47 -70 -29 0 5 -7 7 -15 4 -11 -4 -7 15 15 75 31
85 31 85 56 229 19 111 11 234 -18 269 -6 8 -7 13 -1 13 6 0 9 11 8 25 -2 14
0 27 5 30 4 2 5 17 3 32 -2 16 -5 72 -6 125 -1 54 -5 98 -9 98 -4 0 -3 11 2
25 5 14 7 38 4 55 l-6 30 -784 0 c-774 0 -783 0 -789 -20 -3 -11 -4 -28 -1
-37 22 -78 24 -523 3 -633 -8 -41 -24 -120 -35 -175 -11 -55 -25 -154 -31
-220 -17 -182 -42 -286 -129 -530 -44 -124 -63 -152 -119 -177 -23 -10 -43
-23 -43 -28 0 -6 -4 -10 -9 -10 -6 0 -6 13 0 33 5 17 8 66 8 107 -1 41 2 102
6 135 8 69 8 62 -1 137 -5 41 -2 71 10 107 9 27 16 57 16 66 0 8 5 24 12 34 7
11 8 26 3 37 -8 17 -11 53 -14 137 -1 16 -4 26 -8 24 -5 -3 -9 5 -10 16 -5 53
-9 77 -16 83 -4 4 -7 20 -7 35 0 15 -6 29 -12 32 -7 2 -13 17 -13 33 0 31 5
30 -83 23 -18 -2 -38 -9 -43 -15 -6 -7 -17 -10 -25 -7 -8 3 -14 1 -14 -4 0 -5
-13 -10 -29 -10 -17 0 -27 5 -25 12 3 6 -4 11 -15 11 -16 0 -19 -5 -14 -28 6
-32 1 -35 -22 -12 -23 24 -28 11 -5 -13 16 -18 17 -22 5 -27 -8 -3 -15 -16
-15 -28 0 -13 -7 -34 -15 -48 -8 -14 -17 -32 -21 -40 -4 -8 -25 -32 -46 -52
-33 -31 -43 -35 -58 -26 -10 6 -16 18 -13 25 3 7 1 13 -5 13 -12 0 -11 18 3
39 5 10 4 16 -3 19 -17 5 -15 27 4 43 14 11 14 13 0 21 -23 13 -21 80 3 102
10 10 36 19 57 22 41 5 76 37 67 61 -3 7 2 13 12 13 9 0 13 -5 9 -11 -4 -8 0
-8 15 0 11 7 21 16 21 21 0 6 10 10 22 10 12 0 19 3 15 6 -3 3 -2 17 4 31 6
16 6 22 -1 18 -6 -3 -10 -1 -10 4 0 6 9 11 20 11 11 0 20 7 20 15 0 7 8 19 18
24 9 6 11 11 5 11 -7 0 -13 5 -13 11 0 5 5 7 10 4 6 -3 10 3 10 14 0 11 8 26
18 33 17 12 23 26 36 93 3 11 12 40 22 65 23 63 33 109 24 112 -5 2 -11 32
-14 68 -4 36 -12 91 -18 123 l-12 57 -616 0 -616 0 -57 -120 c-31 -66 -57
-123 -57 -128 0 -4 -12 -33 -26 -63 -26 -54 -54 -124 -53 -135 1 -2 -3 -17 -9
-32 -73 -198 -112 -388 -132 -634 -5 -75 -13 -144 -16 -151 -7 -18 -37 -11
-59 13 -31 34 -25 311 13 575 18 128 20 239 8 375 -9 110 2 135 59 135 39 0
40 1 56 50 9 28 20 65 24 83 l7 32 -67 0 c-39 0 -64 -4 -60 -9z m1461 -668
c-7 -7 -26 7 -26 19 0 6 6 6 15 -2 9 -7 13 -15 11 -17z m-196 -413 c0 -5 -2
-10 -4 -10 -3 0 -8 5 -11 10 -3 6 -1 10 4 10 6 0 11 -4 11 -10z m3571 -293
c51 -16 150 -80 190 -123 61 -68 224 -293 246 -341 14 -29 29 -53 35 -53 23 0
120 76 171 134 67 75 156 146 185 146 40 0 45 -31 43 -259 -1 -118 -6 -220
-10 -226 -16 -21 -44 -189 -57 -337 -2 -29 -8 -54 -14 -56 -5 -2 -12 -20 -16
-40 -4 -20 -14 -44 -23 -52 -9 -8 -17 -33 -18 -54 -3 -38 -18 -60 -34 -50 -9
5 -19 -9 -24 -38 -7 -33 -30 -52 -52 -43 -10 5 -22 7 -27 6 -4 -1 -14 6 -22
16 -11 15 -16 16 -34 5 -11 -7 -25 -10 -30 -7 -4 3 -38 -24 -75 -60 -66 -66
-79 -73 -90 -55 -10 16 -23 12 -30 -10 -3 -11 -15 -20 -25 -20 -12 0 -23 -12
-31 -35 -7 -19 -17 -35 -22 -35 -5 0 -24 -17 -43 -37 -31 -33 -36 -35 -60 -25
-14 7 -29 10 -33 7 -8 -5 -23 -57 -25 -85 0 -14 -40 -47 -61 -50 -28 -5 -45
-24 -51 -58 -4 -20 -6 -38 -5 -40 1 -1 -5 -10 -14 -18 -12 -13 -15 -36 -14
-109 1 -51 5 -99 9 -106 13 -19 -8 -53 -24 -40 -15 13 -26 5 -26 -19 0 -9 -16
-31 -35 -50 -24 -23 -35 -43 -35 -62 0 -18 -5 -28 -15 -28 -8 0 -15 -9 -15
-21 0 -11 -4 -18 -9 -15 -5 4 -12 0 -15 -6 -5 -10 -7 -10 -12 0 -3 6 -9 12
-14 12 -8 0 -4 -134 5 -157 2 -7 -3 -13 -11 -13 -12 0 -14 -7 -9 -30 6 -29 6
-30 -26 -23 -30 6 -32 4 -26 -16 4 -15 0 -24 -11 -28 -32 -13 -52 -38 -52 -65
0 -15 -5 -30 -10 -33 -6 -4 -8 -11 -5 -16 4 -5 -4 -8 -16 -6 -19 2 -24 -4 -30
-33 -7 -37 -34 -96 -48 -105 -5 -2 -3 -22 4 -42 12 -35 12 -39 -8 -49 -11 -7
-26 -10 -31 -8 -16 6 -34 -9 -38 -31 -2 -13 -13 -22 -33 -25 -18 -3 -30 -11
-30 -20 0 -9 -8 -14 -18 -12 -24 4 -22 -25 8 -91 20 -42 23 -60 16 -78 -5 -13
-12 -40 -16 -60 -4 -25 -12 -38 -25 -42 -16 -4 -20 -14 -20 -45 0 -23 -5 -44
-11 -48 -6 -3 -9 -19 -7 -35 3 -19 -1 -34 -13 -45 -16 -14 -18 -14 -29 5 -6
12 -17 21 -24 21 -11 0 -94 -112 -119 -160 -4 -8 -5 12 -2 45 3 33 8 118 12
188 5 105 4 130 -8 138 -10 6 -10 9 -1 9 6 0 12 10 11 23 0 12 -3 16 -6 10 -6
-17 -26 -17 -21 -1 3 7 -2 19 -9 27 -19 18 -9 25 16 11 17 -9 21 -8 21 5 0 8
12 33 26 54 25 38 58 151 89 301 53 256 62 311 61 363 -1 34 3 66 11 75 19 26
17 63 -3 55 -11 -4 -22 1 -30 12 -16 22 -18 12 -4 -16 8 -15 7 -21 -4 -25 -8
-3 -12 -12 -9 -20 4 -10 -3 -14 -23 -14 l-29 -1 25 -14 c21 -11 22 -15 8 -20
-10 -4 -24 1 -36 13 -17 17 -18 22 -5 47 13 23 19 26 46 22 18 -3 26 -3 20 0
-7 2 -13 11 -13 18 0 7 -7 12 -16 11 -9 0 -19 5 -22 13 -3 10 0 12 11 8 9 -3
20 -1 23 5 8 12 15 59 14 93 0 11 0 31 0 44 0 25 87 136 126 160 21 14 50 77
58 126 1 12 11 33 20 48 17 26 17 27 0 33 -28 10 -64 46 -58 56 14 22 -65 138
-93 138 -20 0 -33 41 -20 65 19 35 -3 132 -27 118 -6 -4 -3 4 6 17 36 51 45
75 40 117 -3 31 -9 44 -24 49 -16 5 -17 8 -7 14 7 5 16 7 20 4 4 -2 5 5 2 17
-5 16 -12 19 -41 17 -24 -2 -36 -8 -38 -20 -1 -9 -12 -29 -23 -45 -21 -28 -35
-103 -19 -103 5 0 -3 -18 -18 -41 -21 -34 -24 -45 -15 -70 7 -20 7 -29 0 -29
-6 0 -8 -9 -4 -20 3 -11 2 -20 -4 -20 -5 0 -16 -3 -25 -6 -11 -4 -16 0 -16 14
0 11 -6 22 -12 25 -10 3 -8 9 5 24 9 11 17 36 17 57 0 24 5 39 15 42 12 5 14
17 10 50 -9 76 -7 177 4 224 13 55 35 117 44 126 4 4 7 22 7 40 0 18 5 36 10
39 6 3 10 13 10 21 0 8 9 34 19 58 11 23 21 66 22 94 2 47 5 52 25 52 46 0 72
-19 109 -80 20 -33 48 -68 62 -77 24 -16 26 -16 43 7 10 14 16 28 14 32 -3 4
0 8 6 8 7 0 9 7 6 16 -4 9 -1 23 5 31 7 7 12 28 11 46 -2 80 67 316 143 482
15 33 36 85 46 114 36 102 36 102 142 96 51 -3 113 -11 138 -18z m891 -809 c2
-24 5 -33 16 -61 7 -16 9 -41 6 -55 -4 -15 -6 -42 -5 -60 1 -18 -3 -31 -8 -28
-12 8 -22 -19 -11 -30 5 -5 -4 -10 -22 -11 l-31 -2 7 52 c3 29 6 64 6 79 0 15
7 34 16 43 11 10 15 27 12 50 -2 19 0 35 4 35 4 0 9 -6 10 -12z m-7692 -168
c0 -5 -2 -10 -4 -10 -3 0 -8 5 -11 10 -3 6 -1 10 4 10 6 0 11 -4 11 -10z
m7658 -122 c1 -26 -1 -29 -9 -16 -5 9 -6 23 -3 32 9 23 11 20 12 -16z m-20
-26 c6 -18 -15 -14 -22 4 -4 10 -1 14 6 12 6 -2 14 -10 16 -16z m102 -129 c0
-22 41 -239 58 -314 20 -83 38 -203 63 -416 l11 -103 41 -11 c35 -9 47 -8 73
6 29 16 35 16 80 0 72 -24 109 -50 147 -103 48 -65 107 -186 116 -236 8 -44 6
-44 84 -28 41 8 51 7 72 -10 24 -19 25 -24 25 -129 0 -61 -4 -129 -9 -152 -25
-113 -33 -165 -42 -264 -5 -60 -20 -171 -34 -248 -29 -156 -46 -295 -39 -306
7 -12 14 -240 20 -684 4 -225 7 -426 8 -445 4 -118 -114 65 -139 215 -4 22
-17 87 -30 145 -13 58 -26 134 -30 170 -7 65 -9 77 -21 135 -11 57 -15 63 -54
79 -29 11 -44 25 -54 51 -8 19 -29 48 -45 64 -17 17 -31 35 -31 41 0 6 -17 34
-39 63 -21 29 -51 85 -66 125 -23 61 -58 119 -86 142 -3 3 -11 15 -17 27 -7
12 -24 23 -39 25 -26 3 -28 7 -35 68 -4 36 -6 241 -5 457 2 303 -1 395 -10
404 -8 8 -13 9 -13 2 0 -6 -8 -28 -17 -49 -9 -22 -16 -42 -15 -46 1 -5 -4 -8
-12 -8 -14 0 -39 54 -29 64 3 3 -7 11 -23 18 -16 6 -31 13 -33 15 -16 11 -19
284 -3 338 6 22 14 114 17 205 7 227 21 350 51 466 14 54 32 125 40 158 8 32
17 62 20 67 6 11 44 12 44 2z m-3264 -243 c8 -8 25 -8 55 -1 80 19 123 15 276
-25 40 -11 61 -24 94 -62 54 -60 130 -220 169 -355 17 -58 40 -127 52 -153 11
-27 34 -84 49 -127 16 -42 42 -114 59 -160 17 -45 37 -114 45 -154 9 -48 34
-111 74 -189 l59 -118 21 45 c27 57 97 251 111 309 7 24 32 70 58 102 47 61
150 138 183 138 25 0 36 -27 21 -51 -16 -25 -15 -50 3 -85 8 -16 17 -47 19
-69 3 -22 15 -71 27 -110 11 -38 23 -86 25 -105 2 -19 7 -42 11 -50 3 -8 11
-100 17 -205 11 -185 10 -191 -9 -212 -16 -16 -25 -19 -39 -11 -24 13 -76 -8
-76 -32 0 -10 -5 -20 -11 -22 -14 -5 5 -48 20 -48 5 0 4 -11 -2 -25 -7 -14
-15 -25 -19 -25 -5 0 -8 -15 -8 -33 0 -19 -8 -42 -20 -55 -11 -12 -20 -33 -20
-47 0 -14 -4 -24 -9 -20 -17 10 -21 -11 -6 -31 17 -22 20 -80 5 -89 -6 -4 -9
-12 -8 -18 1 -7 -6 -28 -15 -48 -15 -30 -16 -44 -7 -82 8 -36 7 -52 -2 -67
-11 -17 -10 -22 1 -30 13 -7 13 -13 1 -37 -15 -30 -20 -65 -20 -129 1 -27 -4
-44 -13 -47 -10 -4 -13 -18 -10 -46 3 -34 1 -40 -12 -35 -16 7 -21 -11 -5 -21
6 -3 10 -15 10 -26 0 -10 9 -24 20 -31 29 -18 26 -41 -5 -36 -22 5 -25 1 -30
-36 -4 -23 -5 -46 -4 -51 1 -6 -1 -21 -5 -35 -4 -14 -3 -37 2 -50 7 -18 5 -31
-6 -49 -9 -13 -15 -39 -13 -56 1 -18 -2 -36 -8 -40 -6 -3 -8 -17 -5 -31 4 -14
2 -24 -5 -24 -6 0 -11 -13 -11 -30 0 -16 4 -30 9 -30 15 0 8 -149 -8 -155 -9
-4 -12 -15 -8 -34 3 -16 0 -40 -9 -56 -8 -16 -14 -36 -13 -44 1 -9 -1 -24 -6
-34 -4 -11 -1 -34 8 -57 10 -27 12 -50 7 -82 -5 -27 -4 -48 2 -55 6 -7 7 -13
4 -13 -4 0 -2 -10 5 -21 9 -18 8 -24 -5 -31 -20 -11 -20 -31 -1 -68 10 -20 11
-30 3 -32 -8 -3 -8 -10 1 -26 10 -18 9 -22 -3 -22 -9 0 -20 -9 -26 -20 -8 -15
-6 -24 10 -40 24 -24 27 -55 5 -46 -8 3 -22 9 -30 12 -15 6 -19 -4 -16 -38 1
-10 -3 -18 -8 -18 -6 0 -11 -8 -11 -18 0 -10 -6 -24 -12 -31 -11 -11 -10 -14
0 -18 13 -5 42 -66 42 -88 0 -8 -8 -11 -21 -8 -21 6 -21 6 -3 -23 10 -16 23
-32 28 -36 6 -4 -1 -17 -17 -32 -27 -25 -28 -43 -4 -73 7 -9 5 -13 -6 -13 -24
0 -27 -14 -12 -43 8 -15 10 -27 4 -27 -6 0 -8 -4 -4 -10 3 -5 12 -7 20 -3 8 3
15 0 15 -6 0 -12 -11 -14 -34 -5 -9 3 -16 12 -16 19 0 7 -8 23 -18 36 -18 24
-23 37 -63 189 -11 41 -32 115 -48 165 -16 49 -34 135 -40 190 -7 55 -15 109
-18 119 -5 19 -6 19 -16 0 -6 -10 -12 -43 -13 -74 -5 -87 -24 -299 -34 -365
-32 -219 -55 -305 -140 -510 -31 -75 -99 -187 -121 -201 -17 -10 -21 3 -7 25
11 17 10 25 -1 42 -14 24 -4 54 33 96 15 18 17 25 7 37 -9 11 -10 20 -2 35 6
11 11 34 11 51 0 17 12 52 27 77 27 46 41 94 50 173 5 40 4 43 -11 31 -28 -24
-29 -4 -2 32 29 38 33 52 11 43 -23 -8 -37 25 -17 42 10 7 11 11 5 7 -19 -9
-16 20 4 36 15 12 16 12 10 -3 -3 -10 -2 -18 2 -18 12 0 21 27 15 45 -3 8 6
36 20 62 14 26 30 60 36 76 9 25 8 27 -9 18 -10 -6 -21 -7 -25 -4 -3 3 -15 -2
-26 -12 -25 -23 -28 -1 -5 33 13 17 13 26 5 43 -6 11 -8 28 -4 37 4 9 6 25 5
35 -1 10 5 30 14 43 9 14 17 39 17 55 1 16 7 34 14 40 8 6 11 15 9 20 -7 11
28 81 49 98 9 7 14 16 12 20 -3 4 -1 13 5 21 7 12 9 10 9 -7 0 -17 4 -20 21
-16 17 5 20 11 15 36 -3 16 -6 37 -6 46 0 12 -8 8 -29 -14 -16 -16 -28 -32
-27 -35 1 -3 -8 -15 -21 -27 -13 -12 -23 -19 -23 -16 0 3 -9 -2 -20 -12 -11
-10 -23 -15 -26 -12 -8 7 47 97 88 145 32 37 35 52 12 52 -18 0 -67 -46 -77
-72 -3 -10 -16 -18 -27 -18 -20 0 -20 1 5 45 14 25 38 59 55 75 16 16 30 35
30 42 0 7 -10 2 -21 -12 -14 -17 -22 -21 -26 -12 -2 7 -22 12 -44 12 -42 0
-46 5 -24 33 7 11 11 25 8 33 -3 9 2 14 15 14 23 0 36 15 27 30 -4 6 -16 3
-31 -9 -28 -22 -72 -18 -53 5 9 11 6 19 -16 35 -17 14 -25 28 -22 40 3 11 0
19 -6 19 -7 0 -5 5 3 10 13 8 12 10 -3 10 -15 0 -14 6 13 44 33 49 29 60 -19
46 l-32 -9 7 37 c7 35 6 36 -12 22 -10 -8 -34 -31 -51 -49 -18 -19 -33 -29
-33 -23 0 13 10 27 48 68 12 14 22 31 22 38 0 8 7 16 15 20 8 3 15 14 15 24 0
10 6 24 13 32 6 8 1 6 -13 -5 -14 -11 -31 -26 -38 -35 -11 -13 -14 -13 -22 0
-5 8 -5 21 1 32 6 12 6 18 -1 18 -5 0 -10 -5 -10 -10 0 -6 -11 -20 -25 -32
-14 -12 -25 -27 -25 -34 0 -7 -9 -16 -20 -19 -11 -3 -20 -12 -20 -20 0 -7 -7
-15 -15 -19 -23 -8 -18 5 12 37 19 19 22 26 10 22 -13 -6 -16 -3 -11 9 3 9 12
16 20 16 8 0 14 9 14 19 0 11 5 23 10 26 6 3 10 14 10 24 0 10 9 30 20 44 11
14 16 28 12 31 -10 6 -101 -93 -116 -125 -7 -15 -16 -18 -40 -14 -17 4 -42 2
-56 -4 -14 -5 -19 -10 -12 -10 14 -1 7 -21 -8 -21 -12 0 -3 64 10 68 5 2 10
10 10 18 0 8 5 14 10 14 6 0 9 13 8 29 -2 25 -5 28 -19 20 -40 -21 -48 -12
-43 51 2 40 0 59 -7 55 -6 -4 -8 2 -4 18 9 33 -12 44 -35 19 -10 -11 -17 -22
-14 -25 2 -2 -3 -10 -11 -17 -28 -23 -41 4 -15 30 12 12 19 25 15 28 -3 4 -9
1 -13 -5 -7 -11 -52 -11 -90 1 -16 5 -22 3 -22 -8 0 -20 -37 -45 -59 -39 -17
4 -17 9 -7 49 6 24 19 52 28 63 9 11 18 32 19 48 2 15 12 38 22 50 13 14 21
39 22 69 1 25 6 49 11 52 14 11 54 70 54 82 0 5 -9 10 -20 10 -27 0 -25 12 5
40 31 29 70 103 57 108 -5 1 -8 23 -6 47 4 35 1 45 -11 45 -8 0 -15 9 -15 21
0 11 -4 18 -9 15 -5 -3 -12 1 -15 10 -4 10 -13 13 -26 9 -11 -4 -20 -2 -20 4
0 6 -8 11 -18 11 -28 0 -33 10 -17 34 15 20 21 45 8 33 -9 -10 -33 13 -33 31
0 9 9 34 19 56 22 47 34 106 23 106 -5 0 -16 -17 -27 -37 -10 -21 -20 -32 -22
-25 -3 7 0 18 5 25 19 23 24 76 10 107 -7 17 -15 30 -18 30 -14 0 -50 -33 -50
-46 0 -8 -4 -14 -10 -14 -5 0 -10 4 -10 9 0 5 -8 11 -18 13 -10 3 -19 11 -19
19 -4 71 -18 147 -29 160 -8 9 -20 39 -26 67 -8 33 -19 52 -30 55 -9 3 -18 1
-20 -4 -2 -5 -13 -6 -26 -2 -14 3 -21 11 -18 19 3 7 -1 20 -9 28 -12 12 -11
15 7 19 21 6 21 6 3 34 -22 32 -27 161 -11 249 10 59 5 74 -19 54 -12 -10 -15
-29 -12 -84 2 -51 -2 -86 -16 -125 -10 -30 -19 -63 -20 -73 -1 -10 -5 -18 -9
-18 -4 0 -5 -7 -2 -15 4 -8 1 -21 -5 -29 -9 -10 -8 -15 3 -19 15 -6 16 -30 2
-44 -4 -4 -12 -1 -17 7 -8 12 -10 10 -6 -7 6 -26 3 -27 -24 -13 -16 9 -21 7
-28 -14 -6 -13 -15 -26 -22 -28 -20 -7 1 -30 22 -25 30 8 22 -11 -11 -28 -16
-9 -30 -20 -30 -26 0 -6 -4 -8 -9 -4 -18 11 -23 -16 -6 -35 22 -24 11 -42 -21
-34 -19 5 -23 3 -18 -10 3 -9 1 -16 -5 -16 -7 0 -15 -8 -18 -17 -4 -10 -16
-30 -26 -45 -11 -15 -20 -41 -19 -58 0 -16 -3 -30 -7 -30 -5 0 -16 -26 -26
-57 -21 -69 -59 -129 -86 -136 -10 -3 -19 -12 -19 -21 0 -13 -22 -22 -33 -13
-9 7 -68 -75 -73 -102 -4 -17 -12 -31 -19 -31 -7 0 -25 -25 -40 -55 -14 -30
-31 -55 -36 -55 -14 0 -30 -50 -24 -71 3 -10 14 -20 23 -23 15 -5 18 -18 17
-78 0 -47 -5 -73 -13 -76 -7 -2 -12 -12 -12 -21 0 -10 -9 -26 -20 -36 -11 -10
-20 -24 -20 -32 0 -7 -9 -13 -21 -13 -16 0 -19 -4 -14 -19 3 -11 2 -28 -4 -38
-14 -25 -24 -57 -23 -65 1 -4 -9 -10 -23 -14 -14 -3 -25 -12 -25 -19 0 -8 -9
-10 -26 -7 -26 5 -26 4 -23 -48 3 -39 0 -54 -10 -58 -10 -3 -12 1 -8 17 6 25
-3 33 -23 20 -13 -8 -13 -10 0 -19 12 -7 12 -12 3 -21 -15 -15 -125 -31 -137
-19 -12 12 2 30 25 30 20 0 20 0 0 21 -18 20 -48 19 -36 -1 3 -5 -1 -21 -10
-34 -9 -14 -14 -30 -10 -37 5 -8 1 -9 -13 -5 -23 8 -43 -19 -48 -63 -4 -35
-14 -39 -14 -5 -1 26 -2 27 -14 12 -7 -10 -20 -18 -29 -18 -12 0 -15 -7 -11
-32 7 -39 -21 -103 -32 -75 -11 29 -25 19 -22 -15 2 -18 -2 -33 -9 -35 -7 -3
-13 2 -13 11 0 9 -5 16 -11 16 -7 0 -9 -9 -6 -21 9 -33 -12 -78 -39 -85 -13
-3 -22 -10 -19 -14 3 -5 1 -11 -5 -15 -5 -3 -10 -15 -10 -26 0 -10 -4 -19 -10
-19 -5 0 -10 -11 -10 -24 0 -40 -10 -58 -26 -45 -18 15 -36 2 -33 -24 3 -44
-1 -57 -19 -57 -20 0 -42 -49 -42 -92 0 -34 -10 -41 -32 -21 -17 15 -18 15
-19 -13 -1 -16 -1 -37 0 -46 1 -10 -4 -18 -12 -18 -14 0 -32 -27 -29 -42 4
-17 -17 -7 -21 10 -3 9 -5 -6 -6 -35 0 -28 -5 -54 -10 -57 -5 -3 -7 -15 -4
-25 3 -12 -5 -29 -25 -48 -22 -21 -27 -33 -22 -48 4 -11 3 -31 -2 -45 -6 -14
-10 -52 -10 -85 0 -33 -4 -64 -8 -70 -11 -14 -16 -244 -7 -330 10 -99 -9 -63
-23 44 -6 47 -18 124 -27 171 -12 64 -16 158 -17 380 0 262 2 308 21 410 55
296 56 300 45 385 -21 152 24 376 144 715 24 69 48 146 54 171 5 26 21 73 34
105 14 33 41 100 60 149 19 50 62 151 96 225 83 183 122 293 154 435 41 176
76 308 87 321 5 6 6 13 3 16 -5 6 15 51 87 188 61 116 94 192 91 210 -1 8 2
21 7 29 7 12 22 8 83 -22 40 -20 101 -53 135 -74 34 -21 94 -57 132 -80 38
-24 71 -43 74 -43 2 0 17 18 32 41 51 78 168 214 274 320 120 119 210 178 328
216 43 13 85 30 93 38 13 11 75 42 91 44 3 1 10 -4 15 -9z m1431 -76 c-3 -3
-12 -4 -19 -1 -8 3 -5 6 6 6 11 1 17 -2 13 -5z m-5907 -259 c13 -16 6 -35 -15
-35 -15 0 -28 27 -19 41 8 13 20 11 34 -6z m588 -321 c-1 -18 4 -39 11 -47 13
-17 6 -43 -14 -51 -17 -6 -29 10 -21 29 3 8 2 15 -3 15 -11 0 -20 59 -14 93 5
26 6 27 24 11 11 -10 18 -29 17 -50z m1753 -246 c-4 -12 -14 -24 -22 -26 -11
-3 -11 -1 1 7 13 9 13 12 1 20 -11 7 -10 10 5 14 10 2 20 5 21 6 1 0 -1 -9 -6
-21z m-29 -66 c-7 -2 -9 -15 -6 -31 4 -20 1 -30 -11 -34 -10 -5 -14 -3 -9 5 4
7 3 8 -4 4 -7 -4 -20 -2 -29 3 -17 10 -17 10 0 11 11 0 20 10 23 29 4 17 14
31 23 33 18 4 30 -14 13 -20z m1862 -476 c-3 -8 -12 -17 -20 -20 -12 -4 -12
-2 -4 14 12 23 32 27 24 6z m203 -508 c-3 -8 -6 -5 -6 6 -1 11 2 17 5 13 3 -3
4 -12 1 -19z m5515 -363 c0 -5 -5 -11 -11 -13 -6 -2 -11 4 -11 13 0 9 5 15 11
13 6 -2 11 -8 11 -13z m-6382 -45 c0 -5 -5 -10 -11 -10 -5 0 -7 5 -4 10 3 6 8
10 11 10 2 0 4 -4 4 -10z m-100 -335 c0 -8 -7 -15 -15 -15 -8 0 -15 7 -15 15
0 8 7 15 15 15 8 0 15 -7 15 -15z m0 -69 c0 -18 -10 -25 -26 -19 -8 3 -14 13
-14 23 0 13 5 17 20 13 11 -3 20 -11 20 -17z m1230 -116 c0 -5 -4 -10 -10 -10
-5 0 -10 5 -10 10 0 6 5 10 10 10 6 0 10 -4 10 -10z m-1440 -9 c0 -6 -4 -13
-10 -16 -5 -3 -10 1 -10 9 0 9 5 16 10 16 6 0 10 -4 10 -9z m-824 -78 c-10
-10 -19 5 -10 18 6 11 8 11 12 0 2 -7 1 -15 -2 -18z m-49 -55 c-3 -8 -6 -5 -6
6 -1 11 2 17 5 13 3 -3 4 -12 1 -19z m-17 -12 c0 -2 -8 -10 -17 -17 -16 -13
-17 -12 -4 4 13 16 21 21 21 13z m-57 -53 c-7 -2 -19 -2 -25 0 -7 3 -2 5 12 5
14 0 19 -2 13 -5z m-17 -20 c-15 -4 -16 -7 -5 -14 11 -6 11 -11 1 -21 -6 -6
-12 -20 -12 -30 0 -10 -10 -23 -22 -28 -13 -5 -17 -9 -10 -9 17 -1 15 -26 -3
-41 -9 -7 -13 -15 -11 -18 3 -2 -5 -23 -18 -46 -13 -22 -32 -67 -42 -98 -13
-42 -23 -58 -35 -58 -10 0 -21 -4 -24 -10 -10 -16 -38 -12 -32 4 3 8 1 16 -5
18 -7 3 -6 12 5 29 20 31 48 129 37 129 -4 0 -7 8 -5 18 13 61 17 72 25 67 6
-3 10 -1 10 4 0 6 6 11 14 11 17 0 87 66 79 74 -4 3 1 6 10 6 10 0 17 5 17 10
0 6 10 9 23 9 19 -1 19 -2 3 -6z m2574 -42 c0 -14 -18 -23 -30 -16 -6 4 -8 11
-5 16 8 12 35 12 35 0z m4410 -295 c-16 -87 -30 -172 -30 -189 0 -16 -3 -27
-7 -24 -9 9 15 195 38 291 11 43 19 81 19 84 0 3 2 3 5 0 3 -3 -8 -76 -25
-162z m-4300 129 c-16 -19 -30 -19 -30 -1 0 8 8 16 18 18 24 6 27 1 12 -17z
m166 -92 c-10 -10 -19 5 -10 18 6 11 8 11 12 0 2 -7 1 -15 -2 -18z m1329 -569
c14 -9 25 -23 25 -30 0 -8 4 -14 9 -14 14 0 19 -46 7 -62 -6 -8 -29 -23 -51
-34 -42 -20 -45 -21 -72 -23 -16 -1 -16 -3 -3 -11 9 -6 10 -10 3 -10 -6 0 -15
5 -18 10 -3 6 -14 10 -23 10 -15 0 -15 -2 -2 -10 9 -6 10 -10 3 -10 -6 0 -19
7 -27 16 -9 8 -20 12 -26 9 -5 -3 -10 2 -10 12 0 11 -6 25 -12 32 -10 11 -10
14 0 18 6 3 12 10 12 16 0 14 79 66 125 83 16 7 31 12 33 13 1 0 14 -6 27 -15z
m-920 -124 c3 -5 1 -10 -4 -10 -6 0 -11 5 -11 10 0 6 2 10 4 10 3 0 8 -4 11
-10z m30 -501 c-6 -9 -11 -7 -22 6 -7 11 -13 26 -13 34 0 12 5 11 21 -6 13
-13 18 -26 14 -34z m-4070 -370 c-10 -15 -25 -10 -19 6 4 8 10 12 15 9 5 -3 7
-10 4 -15z m2012 -61 c-3 -8 -6 -5 -6 6 -1 11 2 17 5 13 3 -3 4 -12 1 -19z
m-2034 -248 c-4 -14 0 -20 11 -20 9 0 16 -3 17 -7 0 -5 2 -16 4 -25 2 -10 -1
-18 -6 -18 -4 0 -6 -7 -3 -15 3 -8 -1 -24 -10 -37 -19 -27 -21 -42 -3 -33 6 4
-1 -5 -17 -18 -24 -21 -32 -23 -48 -14 -11 7 -22 24 -25 40 -3 15 -9 27 -14
27 -5 0 -9 4 -9 10 0 5 7 7 16 3 13 -5 15 -2 10 15 -4 12 -2 23 5 28 8 4 9 3
5 -4 -4 -7 -3 -12 1 -12 5 0 14 10 22 21 11 19 11 21 -3 16 -24 -10 -19 2 15
34 37 34 39 35 32 9z m12 -210 c3 -6 -1 -7 -9 -4 -18 7 -21 14 -7 14 6 0 13
-4 16 -10z m-28 -29 c0 -11 -6 -17 -14 -14 -16 6 -17 20 0 26 6 3 13 6 14 6 1
1 1 -8 0 -18z m-7 -41 c0 -5 -4 -10 -10 -10 -5 0 -10 5 -10 10 0 6 5 10 10 10
6 0 10 -4 10 -10z m2808 -1188 c-11 -41 -28 -65 -28 -41 -1 9 -7 7 -20 -9
l-19 -23 6 38 c10 67 19 81 46 76 23 -5 24 -7 15 -41z"/>
<path d="M7177 8133 c-11 -18 -19 -82 -11 -95 5 -8 12 5 21 37 11 44 4 82 -10
58z"/>
<path d="M6700 7186 c0 -9 5 -16 10 -16 6 0 10 4 10 9 0 6 -4 13 -10 16 -5 3
-10 -1 -10 -9z"/>
<path d="M6669 7163 c-7 -18 -6 -30 1 -37 7 -7 10 -6 10 3 0 7 4 10 8 7 5 -3
6 8 4 25 -5 36 -10 36 -23 2z"/>
<path d="M6770 6420 c0 -5 5 -10 11 -10 5 0 7 5 4 10 -3 6 -8 10 -11 10 -2 0
-4 -4 -4 -10z"/>
<path d="M8683 6725 c-22 -18 -40 -49 -63 -107 l-31 -82 15 -86 c24 -132 56
-381 55 -420 -2 -32 89 -326 111 -360 16 -25 27 3 33 89 6 78 1 129 -27 281
-18 97 -34 241 -43 381 -5 91 -5 96 19 122 25 26 25 27 12 108 -12 71 -24 99
-44 99 -3 0 -19 -11 -37 -25z"/>
<path d="M3804 6979 c-3 -6 -1 -16 5 -22 6 -6 12 -20 12 -31 1 -18 2 -18 6 -3
2 9 9 15 14 12 5 -4 9 3 9 14 0 24 -35 47 -46 30z"/>
<path d="M3868 6893 c-10 -2 -18 -9 -18 -14 0 -6 -9 -7 -20 -4 -15 5 -20 2
-20 -14 0 -10 -3 -26 -6 -34 -3 -10 2 -18 16 -22 18 -6 20 -12 15 -53 -3 -26
-10 -48 -15 -50 -13 -5 -13 -42 -1 -42 16 0 26 -111 11 -120 -8 -5 -10 -19 -6
-43 5 -25 2 -38 -9 -47 -8 -7 -15 -21 -15 -31 0 -24 -26 -25 -35 -1 -6 16 -7
16 -17 -2 -6 -10 -8 -33 -5 -52 6 -38 -6 -52 -30 -32 -9 7 -26 11 -38 10 -13
-2 -26 2 -30 7 -13 22 -25 10 -25 -23 0 -18 -7 -39 -15 -46 -9 -8 -15 -9 -15
-2 0 6 5 14 11 18 8 5 6 10 -6 16 -11 7 -15 17 -11 33 7 27 -2 57 -15 49 -5
-3 -9 -32 -9 -65 0 -62 -7 -72 -27 -39 -13 19 -13 19 -36 -3 -33 -31 -40 -54
-19 -67 16 -9 15 -12 -6 -29 -12 -11 -27 -21 -32 -23 -6 -2 -17 -22 -25 -44
-7 -22 -25 -65 -38 -95 -24 -52 -69 -174 -121 -329 -31 -95 -77 -270 -111
-425 -14 -66 -28 -126 -30 -132 -2 -7 -2 -13 1 -13 3 0 17 28 33 63 15 34 48
94 73 132 25 39 85 144 133 235 124 233 221 375 329 480 25 24 46 49 46 55 0
6 10 31 21 55 12 24 30 79 40 122 10 43 27 95 38 116 10 20 21 54 25 75 4 21
16 59 28 85 17 40 30 86 73 252 l7 25 -19 -23 -19 -23 -18 20 c-15 16 -17 29
-12 61 3 22 3 39 -1 39 -5 -1 -16 -3 -25 -6z"/>
<path d="M4150 6832 c0 -6 5 -14 11 -18 6 -3 8 -16 5 -27 -3 -12 0 -27 6 -34
22 -27 -2 -24 -25 3 -30 34 -63 28 -53 -10 3 -14 2 -28 -4 -31 -5 -3 -10 0
-10 7 -1 21 -30 -23 -30 -45 0 -10 -8 -31 -19 -45 -10 -15 -22 -47 -26 -72 -4
-25 -15 -61 -25 -80 -31 -61 -80 -191 -80 -211 0 -17 3 -17 43 7 50 31 78 75
208 330 l92 181 -20 26 c-15 19 -23 23 -31 15 -8 -8 -15 -8 -27 2 -9 8 -15 8
-15 2z"/>
<path d="M5213 6656 c-25 -12 -31 -52 -13 -86 7 -12 7 -21 0 -25 -11 -7 22
-75 63 -129 4 -6 34 -52 66 -102 32 -49 76 -105 99 -122 78 -62 228 -316 287
-487 16 -44 31 -84 35 -88 18 -21 87 285 97 429 6 77 5 82 -16 89 -12 3 -28
19 -36 34 -8 16 -25 36 -39 45 -15 9 -26 23 -26 30 0 16 -42 46 -65 46 -8 0
-15 4 -15 8 0 5 -13 24 -30 42 -16 18 -30 41 -30 51 0 17 -26 34 -45 30 -15
-4 -34 29 -28 47 5 11 2 14 -10 9 -16 -6 -21 3 -18 28 1 6 -5 2 -12 -7 -15
-19 -47 -24 -47 -8 0 13 -60 50 -82 50 -11 0 -15 -5 -12 -14 3 -7 -2 -16 -10
-19 -9 -4 -17 1 -21 14 -4 10 -11 19 -16 19 -5 0 -9 6 -9 13 0 8 -9 22 -20 32
-21 19 -27 45 -10 45 14 0 12 27 -2 32 -7 2 -23 -1 -35 -6z"/>
<path d="M3806 6605 c-6 -18 2 -45 15 -45 12 0 12 47 0 54 -5 3 -11 -1 -15 -9z"/>
<path d="M6410 6524 c0 -11 7 -29 15 -40 19 -25 19 -15 0 27 -10 25 -14 29
-15 13z"/>
<path d="M3700 6455 c-1 -5 -2 -14 -1 -19 1 -5 -4 -13 -11 -17 -10 -6 -10 -11
-1 -20 16 -16 27 8 20 43 -2 13 -5 19 -7 13z"/>
<path d="M6416 6443 c-3 -3 0 -15 6 -27 12 -21 14 -27 16 -58 1 -10 9 -18 17
-18 12 0 15 10 14 44 -2 35 -7 47 -25 55 -12 5 -25 7 -28 4z"/>
<path d="M6450 6315 c0 -8 5 -15 10 -15 6 0 10 7 10 15 0 8 -4 15 -10 15 -5 0
-10 -7 -10 -15z"/>
<path d="M3977 5472 c-22 -24 -22 -44 1 -40 11 2 17 13 18 31 1 32 2 32 -19 9z"/>
<path d="M5060 5290 c0 -5 5 -10 11 -10 5 0 7 5 4 10 -3 6 -8 10 -11 10 -2 0
-4 -4 -4 -10z"/>
<path d="M4950 5240 c0 -5 5 -10 10 -10 6 0 10 5 10 10 0 6 -4 10 -10 10 -5 0
-10 -4 -10 -10z"/>
<path d="M3720 5103 c0 -11 5 -11 20 -3 11 6 20 13 20 15 0 2 -9 3 -20 2 -11
-1 -20 -7 -20 -14z"/>
<path d="M5306 5035 c-3 -8 -2 -15 3 -15 5 0 14 7 21 15 10 12 10 15 -3 15 -8
0 -17 -7 -21 -15z"/>
<path d="M5820 4310 c0 -5 5 -10 11 -10 5 0 7 5 4 10 -3 6 -8 10 -11 10 -2 0
-4 -4 -4 -10z"/>
<path d="M6056 3945 c4 -8 8 -15 10 -15 2 0 4 7 4 15 0 8 -4 15 -10 15 -5 0
-7 -7 -4 -15z"/>
<path d="M5666 3623 c-6 -14 -5 -15 5 -6 7 7 10 15 7 18 -3 3 -9 -2 -12 -12z"/>
<path d="M2415 10590 c3 -5 8 -10 11 -10 2 0 4 5 4 10 0 6 -5 10 -11 10 -5 0
-7 -4 -4 -10z"/>
<path d="M1270 8985 c0 -25 -4 -45 -9 -45 -5 0 -11 -12 -14 -27 -6 -29 -40
-50 -93 -57 -76 -11 -89 -34 -69 -121 15 -65 38 -115 96 -210 27 -43 81 -142
158 -290 94 -181 205 -542 241 -783 23 -152 33 -82 33 235 0 264 -2 305 -18
360 -11 34 -23 60 -27 57 -4 -3 -4 10 0 28 7 35 8 136 0 178 -3 14 -14 29 -26
35 -12 5 -22 15 -22 22 0 7 -6 13 -14 13 -21 0 -28 15 -37 84 -4 33 -15 86
-24 116 -9 30 -18 64 -20 75 -2 11 -4 20 -5 20 -1 0 -4 14 -6 30 -7 46 -35
125 -57 162 -17 30 -24 61 -26 115 -1 10 -14 24 -31 33 l-30 16 0 -46z"/>
<path d="M10567 6451 c-23 -33 -28 -44 -12 -26 35 39 59 75 54 79 -2 2 -21
-22 -42 -53z"/>
<path d="M10393 5663 c-21 -8 -15 -33 7 -33 11 0 20 5 20 10 0 6 -5 10 -11 10
-5 0 -7 5 -4 10 7 11 6 11 -12 3z"/>
<path d="M10165 5230 c3 -5 8 -10 11 -10 2 0 4 5 4 10 0 6 -5 10 -11 10 -5 0
-7 -4 -4 -10z"/>
<path d="M9037 1333 c-2 -5 -7 -20 -11 -34 -3 -15 -21 -45 -40 -68 -31 -37
-44 -68 -45 -111 -1 -37 -7 -76 -13 -86 -4 -5 -6 -25 -6 -43 1 -22 -5 -37 -15
-43 -10 -5 -17 -17 -17 -28 0 -13 -7 -18 -20 -17 -14 1 -18 6 -14 19 3 11 0
18 -9 18 -15 0 -17 64 -2 114 8 29 8 29 -14 13 -32 -21 -49 -57 -81 -165 -16
-51 -40 -110 -54 -130 -35 -52 -38 -63 -86 -287 -40 -190 -53 -238 -87 -313
-8 -18 -18 -54 -23 -80 -5 -26 -11 -57 -15 -69 l-7 -23 550 0 550 0 13 33 c6
17 12 35 13 39 1 4 8 16 18 27 14 16 25 74 18 91 -11 25 -5 72 12 90 23 25 18
34 -33 60 -21 11 -39 27 -39 35 0 17 -45 21 -55 5 -7 -11 -55 41 -55 58 0 6
-15 26 -33 44 -20 19 -40 53 -48 81 -7 26 -16 47 -20 47 -18 0 -79 71 -79 93
0 13 -10 36 -22 50 -13 15 -45 76 -72 136 -47 107 -74 141 -111 141 -16 0 -46
-23 -42 -32 1 -2 -6 5 -17 16 -20 22 -19 68 4 171 6 28 11 67 12 88 0 20 4 37
9 37 5 0 9 7 9 15 0 16 -16 21 -23 8z"/>
<path d="M9820 780 c-10 -35 -13 -120 -9 -205 1 -16 -5 -48 -14 -70 -17 -45
-8 -75 22 -75 25 0 44 25 44 58 -1 94 -35 322 -43 292z"/>
<path d="M10113 743 c-13 -9 -23 -20 -23 -25 0 -5 -7 -16 -15 -24 -12 -13 -15
-12 -24 4 -5 9 -19 18 -30 19 -12 1 -19 -2 -16 -7 3 -5 2 -18 -3 -27 -6 -10
-13 -72 -16 -138 -6 -103 -4 -123 10 -140 10 -13 18 -16 21 -8 2 6 22 35 43
65 41 55 124 215 133 256 7 29 -21 42 -38 19 -7 -10 -18 -17 -26 -17 -12 0
-12 2 0 9 7 5 12 13 10 19 -2 6 -13 4 -26 -5z"/>
<path d="M10765 628 c-16 -15 -33 -28 -37 -28 -11 0 -68 -90 -93 -146 -22 -49
-39 -69 -60 -69 -5 0 -15 -20 -22 -44 -7 -25 -24 -56 -38 -71 -14 -14 -25 -33
-25 -42 0 -8 -6 -21 -14 -27 -8 -7 -12 -21 -9 -31 3 -11 0 -20 -6 -20 -6 0
-11 -4 -11 -10 0 -5 -10 -20 -22 -33 -13 -13 -39 -41 -57 -63 l-35 -39 228 -3
c126 -1 231 -1 233 1 2 2 2 150 1 329 l-3 325 -30 -29z"/>
</g>
</svg>
